<svg xmlns="http://www.w3.org/2000/svg" style="display:none">
<!-- Icon sprite. Paths are from Lucide (lucide.dev), MIT licence, hand-copied
     so the app keeps its no-build-step rule. Stroke style: 24x24 viewBox,
     stroke-width 2, round caps/joins, currentColor. -->
<symbol id="i-home" viewBox="0 0 24 24" fill="none" stroke="currentColor" stroke-width="2" stroke-linecap="round" stroke-linejoin="round"><path d="M3 9.5 12 3l9 6.5V20a1 1 0 0 1-1 1h-5v-7H9v7H4a1 1 0 0 1-1-1z"/></symbol>
<symbol id="i-users" viewBox="0 0 24 24" fill="none" stroke="currentColor" stroke-width="2" stroke-linecap="round" stroke-linejoin="round"><path d="M16 21v-2a4 4 0 0 0-4-4H6a4 4 0 0 0-4 4v2"/><circle cx="9" cy="7" r="4"/><path d="M22 21v-2a4 4 0 0 0-3-3.87M16 3.13a4 4 0 0 1 0 7.75"/></symbol>
<symbol id="i-bed" viewBox="0 0 24 24" fill="none" stroke="currentColor" stroke-width="2" stroke-linecap="round" stroke-linejoin="round"><path d="M2 4v16M2 8h18a2 2 0 0 1 2 2v10M2 17h20"/><circle cx="7" cy="12" r="2"/></symbol>
<symbol id="i-wallet" viewBox="0 0 24 24" fill="none" stroke="currentColor" stroke-width="2" stroke-linecap="round" stroke-linejoin="round"><path d="M19 7V5a2 2 0 0 0-2-2H5a2 2 0 0 0 0 4h14a2 2 0 0 1 2 2v8a2 2 0 0 1-2 2H5a2 2 0 0 1-2-2V5"/><path d="M17 12h.01"/></symbol>
<symbol id="i-rupee" viewBox="0 0 24 24" fill="none" stroke="currentColor" stroke-width="2" stroke-linecap="round" stroke-linejoin="round"><path d="M6 3h12M6 8h12M6 13h4a5 5 0 0 0 0-10M6 13l8 8"/></symbol>
<symbol id="i-check-square" viewBox="0 0 24 24" fill="none" stroke="currentColor" stroke-width="2" stroke-linecap="round" stroke-linejoin="round"><path d="m9 11 3 3L22 4"/><path d="M21 12v7a2 2 0 0 1-2 2H5a2 2 0 0 1-2-2V5a2 2 0 0 1 2-2h11"/></symbol>
<symbol id="i-wrench" viewBox="0 0 24 24" fill="none" stroke="currentColor" stroke-width="2" stroke-linecap="round" stroke-linejoin="round"><path d="M14.7 6.3a1 1 0 0 0 0 1.4l1.6 1.6a1 1 0 0 0 1.4 0l3.77-3.77a6 6 0 0 1-7.94 7.94l-6.91 6.91a2.12 2.12 0 0 1-3-3l6.91-6.91a6 6 0 0 1 7.94-7.94z"/></symbol>
<symbol id="i-utensils" viewBox="0 0 24 24" fill="none" stroke="currentColor" stroke-width="2" stroke-linecap="round" stroke-linejoin="round"><path d="M3 2v7c0 1.1.9 2 2 2h2a2 2 0 0 0 2-2V2M7 2v20M21 15V2a5 5 0 0 0-3 4.5v5.5a2 2 0 0 0 2 2zM18 15v7"/></symbol>
<symbol id="i-megaphone" viewBox="0 0 24 24" fill="none" stroke="currentColor" stroke-width="2" stroke-linecap="round" stroke-linejoin="round"><path d="m3 11 18-5v12L3 14v-3z"/><path d="M11.6 16.8a3 3 0 1 1-5.8-1.6"/></symbol>
<symbol id="i-inbox" viewBox="0 0 24 24" fill="none" stroke="currentColor" stroke-width="2" stroke-linecap="round" stroke-linejoin="round"><path d="M22 12h-6l-2 3h-4l-2-3H2"/><path d="M5.45 5.11 2 12v6a2 2 0 0 0 2 2h16a2 2 0 0 0 2-2v-6l-3.45-6.89A2 2 0 0 0 16.76 4H7.24a2 2 0 0 0-1.79 1.11z"/></symbol>
<symbol id="i-cart" viewBox="0 0 24 24" fill="none" stroke="currentColor" stroke-width="2" stroke-linecap="round" stroke-linejoin="round"><circle cx="8" cy="21" r="1"/><circle cx="19" cy="21" r="1"/><path d="M2.05 2.05h2l2.66 12.42a2 2 0 0 0 2 1.58h9.78a2 2 0 0 0 1.95-1.57l1.65-7.43H5.12"/></symbol>
<symbol id="i-calendar" viewBox="0 0 24 24" fill="none" stroke="currentColor" stroke-width="2" stroke-linecap="round" stroke-linejoin="round"><path d="M8 2v4M16 2v4"/><rect width="18" height="18" x="3" y="4" rx="2"/><path d="M3 10h18"/></symbol>
<symbol id="i-chart" viewBox="0 0 24 24" fill="none" stroke="currentColor" stroke-width="2" stroke-linecap="round" stroke-linejoin="round"><path d="M3 3v16a2 2 0 0 0 2 2h16"/><path d="M18 17V9M13 17V5M8 17v-3"/></symbol>
<symbol id="i-scale" viewBox="0 0 24 24" fill="none" stroke="currentColor" stroke-width="2" stroke-linecap="round" stroke-linejoin="round"><path d="m16 16 3-8 3 8c-.87.65-1.92 1-3 1s-2.13-.35-3-1M2 16l3-8 3 8c-.87.65-1.92 1-3 1s-2.13-.35-3-1M7 21h10M12 3v18M3 7h2c2 0 5-1 7-2 2 1 5 2 7 2h2"/></symbol>
<symbol id="i-lock" viewBox="0 0 24 24" fill="none" stroke="currentColor" stroke-width="2" stroke-linecap="round" stroke-linejoin="round"><rect width="18" height="11" x="3" y="11" rx="2"/><path d="M7 11V7a5 5 0 0 1 10 0v4"/></symbol>
<symbol id="i-search" viewBox="0 0 24 24" fill="none" stroke="currentColor" stroke-width="2" stroke-linecap="round" stroke-linejoin="round"><circle cx="11" cy="11" r="8"/><path d="m21 21-4.3-4.3"/></symbol>
<symbol id="i-plus" viewBox="0 0 24 24" fill="none" stroke="currentColor" stroke-width="2" stroke-linecap="round" stroke-linejoin="round"><path d="M5 12h14M12 5v14"/></symbol>
<symbol id="i-menu" viewBox="0 0 24 24" fill="none" stroke="currentColor" stroke-width="2" stroke-linecap="round" stroke-linejoin="round"><path d="M4 6h16M4 12h16M4 18h16"/></symbol>
<symbol id="i-more" viewBox="0 0 24 24" fill="none" stroke="currentColor" stroke-width="2" stroke-linecap="round" stroke-linejoin="round"><circle cx="12" cy="12" r="1"/><circle cx="19" cy="12" r="1"/><circle cx="5" cy="12" r="1"/></symbol>
<symbol id="i-refresh" viewBox="0 0 24 24" fill="none" stroke="currentColor" stroke-width="2" stroke-linecap="round" stroke-linejoin="round"><path d="M3 12a9 9 0 0 1 15-6.7L21 8M21 3v5h-5M21 12a9 9 0 0 1-15 6.7L3 16M3 21v-5h5"/></symbol>
<symbol id="i-logout" viewBox="0 0 24 24" fill="none" stroke="currentColor" stroke-width="2" stroke-linecap="round" stroke-linejoin="round"><path d="M9 21H5a2 2 0 0 1-2-2V5a2 2 0 0 1 2-2h4M16 17l5-5-5-5M21 12H9"/></symbol>
<symbol id="i-whatsapp" viewBox="0 0 24 24" fill="none" stroke="currentColor" stroke-width="2" stroke-linecap="round" stroke-linejoin="round"><path d="M21 11.5a8.38 8.38 0 0 1-.9 3.8 8.5 8.5 0 0 1-7.6 4.7 8.38 8.38 0 0 1-3.8-.9L3 21l1.9-5.7a8.38 8.38 0 0 1-.9-3.8 8.5 8.5 0 0 1 4.7-7.6 8.38 8.38 0 0 1 3.8-.9h.5a8.48 8.48 0 0 1 8 8z"/></symbol>
<symbol id="i-copy" viewBox="0 0 24 24" fill="none" stroke="currentColor" stroke-width="2" stroke-linecap="round" stroke-linejoin="round"><rect width="14" height="14" x="8" y="8" rx="2"/><path d="M4 16a2 2 0 0 1-2-2V4a2 2 0 0 1 2-2h10a2 2 0 0 1 2 2"/></symbol>
<symbol id="i-moon" viewBox="0 0 24 24" fill="none" stroke="currentColor" stroke-width="2" stroke-linecap="round" stroke-linejoin="round"><path d="M12 3a6 6 0 0 0 9 9 9 9 0 1 1-9-9z"/></symbol>
<symbol id="i-sun" viewBox="0 0 24 24" fill="none" stroke="currentColor" stroke-width="2" stroke-linecap="round" stroke-linejoin="round"><circle cx="12" cy="12" r="4"/><path d="M12 2v2M12 20v2M4.9 4.9l1.4 1.4M17.7 17.7l1.4 1.4M2 12h2M20 12h2M6.3 17.7l-1.4 1.4M19.1 4.9l-1.4 1.4"/></symbol>
<symbol id="i-flag" viewBox="0 0 24 24" fill="none" stroke="currentColor" stroke-width="2" stroke-linecap="round" stroke-linejoin="round"><path d="M4 15s1-1 4-1 5 2 8 2 4-1 4-1V3s-1 1-4 1-5-2-8-2-4 1-4 1z"/><path d="M4 22v-7"/></symbol>
<symbol id="i-arrow-right" viewBox="0 0 24 24" fill="none" stroke="currentColor" stroke-width="2" stroke-linecap="round" stroke-linejoin="round"><path d="M5 12h14M12 5l7 7-7 7"/></symbol>
<symbol id="i-mic" viewBox="0 0 24 24" fill="none" stroke="currentColor" stroke-width="2" stroke-linecap="round" stroke-linejoin="round"><rect width="6" height="12" x="9" y="2" rx="3"/><path d="M19 10v1a7 7 0 0 1-14 0v-1M12 19v3"/></symbol>
<symbol id="i-camera" viewBox="0 0 24 24" fill="none" stroke="currentColor" stroke-width="2" stroke-linecap="round" stroke-linejoin="round"><path d="M14.5 4h-5L7 7H4a2 2 0 0 0-2 2v9a2 2 0 0 0 2 2h16a2 2 0 0 0 2-2V9a2 2 0 0 0-2-2h-3z"/><circle cx="12" cy="13" r="3"/></symbol>
<symbol id="i-receipt" viewBox="0 0 24 24" fill="none" stroke="currentColor" stroke-width="2" stroke-linecap="round" stroke-linejoin="round"><path d="M4 2v20l2-1 2 1 2-1 2 1 2-1 2 1 2-1V2l-2 1-2-1-2 1-2-1-2 1-2-1z"/><path d="M8 7h8M8 11h8M8 15h5"/></symbol>
<symbol id="i-sparkle" viewBox="0 0 24 24" fill="none" stroke="currentColor" stroke-width="2" stroke-linecap="round" stroke-linejoin="round"><path d="M12 3l1.9 5.1L19 10l-5.1 1.9L12 17l-1.9-5.1L5 10l5.1-1.9z"/><path d="M19 15l.7 1.8L21.5 18l-1.8.7L19 21l-.7-2.3L16.5 18l1.8-.7z"/></symbol>
</svg>
